<svg id="visual" viewBox="0 0 900 600" width="900" height="600" xmlns="http://www.w3.org/2000/svg" xmlns:xlink="http://www.w3.org/1999/xlink" version="1.1"><path d="M0 381L21.5 391.8C43 402.7 86 424.3 128.8 420.8C171.7 417.3 214.3 388.7 257.2 379.8C300 371 343 382 385.8 396.8C428.7 411.7 471.3 430.3 514.2 423.2C557 416 600 383 642.8 370.8C685.7 358.7 728.3 367.3 771.2 380.7C814 394 857 412 878.5 421L900 430L900 601L878.5 601C857 601 814 601 771.2 601C728.3 601 685.7 601 642.8 601C600 601 557 601 514.2 601C471.3 601 428.7 601 385.8 601C343 601 300 601 257.2 601C214.3 601 171.7 601 128.8 601C86 601 43 601 21.5 601L0 601Z" fill="#fa7268"></path><path d="M0 473L21.5 465.2C43 457.3 86 441.7 128.8 440C171.7 438.3 214.3 450.7 257.2 451C300 451.3 343 439.7 385.8 439.3C428.7 439 471.3 450 514.2 453.5C557 457 600 453 642.8 447.2C685.7 441.3 728.3 433.7 771.2 430.7C814 427.7 857 429.3 878.5 430.2L900 431L900 601L878.5 601C857 601 814 601 771.2 601C728.3 601 685.7 601 642.8 601C600 601 557 601 514.2 601C471.3 601 428.7 601 385.8 601C343 601 300 601 257.2 601C214.3 601 171.7 601 128.8 601C86 601 43 601 21.5 601L0 601Z" fill="#ef5f67"></path><path d="M0 457L21.5 463C43 469 86 481 128.8 480.3C171.7 479.7 214.3 466.3 257.2 458.7C300 451 343 449 385.8 454.7C428.7 460.3 471.3 473.7 514.2 483.7C557 493.7 600 500.3 642.8 500.7C685.7 501 728.3 495 771.2 489.3C814 483.7 857 478.3 878.5 475.7L900 473L900 601L878.5 601C857 601 814 601 771.2 601C728.3 601 685.7 601 642.8 601C600 601 557 601 514.2 601C471.3 601 428.7 601 385.8 601C343 601 300 601 257.2 601C214.3 601 171.7 601 128.8 601C86 601 43 601 21.5 601L0 601Z" fill="#e34c67"></path><path d="M0 487L21.5 495.7C43 504.3 86 521.7 128.8 528.5C171.7 535.3 214.3 531.7 257.2 522.8C300 514 343 500 385.8 500.7C428.7 501.3 471.3 516.7 514.2 524.7C557 532.7 600 533.3 642.8 526.5C685.7 519.7 728.3 505.3 771.2 503.3C814 501.3 857 511.7 878.5 516.8L900 522L900 601L878.5 601C857 601 814 601 771.2 601C728.3 601 685.7 601 642.8 601C600 601 557 601 514.2 601C471.3 601 428.7 601 385.8 601C343 601 300 601 257.2 601C214.3 601 171.7 601 128.8 601C86 601 43 601 21.5 601L0 601Z" fill="#d53867"></path><path d="M0 558L21.5 553C43 548 86 538 128.8 537.2C171.7 536.3 214.3 544.7 257.2 551.5C300 558.3 343 563.7 385.8 562C428.7 560.3 471.3 551.7 514.2 549.3C557 547 600 551 642.8 548.7C685.7 546.3 728.3 537.7 771.2 533.2C814 528.7 857 528.3 878.5 528.2L900 528L900 601L878.5 601C857 601 814 601 771.2 601C728.3 601 685.7 601 642.8 601C600 601 557 601 514.2 601C471.3 601 428.7 601 385.8 601C343 601 300 601 257.2 601C214.3 601 171.7 601 128.8 601C86 601 43 601 21.5 601L0 601Z" fill="#c62368"></path></svg>