<svg id="visual" viewBox="0 0 960 540" width="960" height="540" xmlns="http://www.w3.org/2000/svg" xmlns:xlink="http://www.w3.org/1999/xlink" version="1.1"><path d="M0 257L40 257.7C80 258.3 160 259.7 240 243.8C320 228 400 195 480 179.2C560 163.3 640 164.7 720 170.5C800 176.3 880 186.7 920 191.8L960 197L960 0L920 0C880 0 800 0 720 0C640 0 560 0 480 0C400 0 320 0 240 0C160 0 80 0 40 0L0 0Z" fill="#03045e"></path><path d="M0 185L40 179.7C80 174.3 160 163.7 240 166.7C320 169.7 400 186.3 480 184C560 181.7 640 160.3 720 159.5C800 158.7 880 178.3 920 188.2L960 198L960 0L920 0C880 0 800 0 720 0C640 0 560 0 480 0C400 0 320 0 240 0C160 0 80 0 40 0L0 0Z" fill="#003487"></path><path d="M0 105L40 104.8C80 104.7 160 104.3 240 105.8C320 107.3 400 110.7 480 114.3C560 118 640 122 720 130.2C800 138.3 880 150.7 920 156.8L960 163L960 0L920 0C880 0 800 0 720 0C640 0 560 0 480 0C400 0 320 0 240 0C160 0 80 0 40 0L0 0Z" fill="#0060ab"></path><path d="M0 55L40 56C80 57 160 59 240 67.2C320 75.3 400 89.7 480 99.8C560 110 640 116 720 120C800 124 880 126 920 127L960 128L960 0L920 0C880 0 800 0 720 0C640 0 560 0 480 0C400 0 320 0 240 0C160 0 80 0 40 0L0 0Z" fill="#008bc7"></path><path d="M0 57L40 58.7C80 60.3 160 63.7 240 68.2C320 72.7 400 78.3 480 79C560 79.7 640 75.3 720 74.7C800 74 880 77 920 78.5L960 80L960 0L920 0C880 0 800 0 720 0C640 0 560 0 480 0C400 0 320 0 240 0C160 0 80 0 40 0L0 0Z" fill="#00b4d8"></path></svg>