<svg id="visual" viewBox="0 0 900 600" width="900" height="600" xmlns="http://www.w3.org/2000/svg" xmlns:xlink="http://www.w3.org/1999/xlink" version="1.1"><rect x="0" y="0" width="900" height="600" fill="#002233"></rect><path d="M0 377L21.5 377.8C43 378.7 86 380.3 128.8 398.3C171.7 416.3 214.3 450.7 257.2 469C300 487.3 343 489.7 385.8 475.3C428.7 461 471.3 430 514.2 410.5C557 391 600 383 642.8 396.7C685.7 410.3 728.3 445.7 771.2 467.5C814 489.3 857 497.7 878.5 501.8L900 506L900 601L878.5 601C857 601 814 601 771.2 601C728.3 601 685.7 601 642.8 601C600 601 557 601 514.2 601C471.3 601 428.7 601 385.8 601C343 601 300 601 257.2 601C214.3 601 171.7 601 128.8 601C86 601 43 601 21.5 601L0 601Z" fill="#0066FF" stroke-linecap="round" stroke-linejoin="miter"></path></svg>